# xmcd
#
# Track frame offsets: 
#        150
#        14062
#        25705
#        42136
#        60222
#        79290
#        95711
#        111337
#        135376
#        152223
#        164440
#        171485
#        189418
#        201506
#        215592
#        231343
#        247961
#        266231
#        281194
#        292975
#        307924
#
# Disc length: 4299 seconds
#
# Revision: 0
# Processed by: cddbd v1.5.1PL2 Copyright (c) Steve Scherf et al.
# Submitted via: ExactAudioCopy v0.95a4
#
DISCID=3710c915
DTITLE=Hank Williams III - Stubbs BBQ - Austin TX - 1-18-04 - Disc 1
DYEAR=2004
DGENRE=Country
TTITLE0=Straight to Hell
TTITLE1=Thrown Out of the Bar
TTITLE2=A Little Bit of Smoke
TTITLE3=I Don't Know
TTITLE4=7 Months, 39 Days
TTITLE5=Trashville
TTITLE6=Even Though I'm Broke
TTITLE7=Whiskey, Weed and Women
TTITLE8=Long-Haired Redneck
TTITLE9=My Heart Would Still Want You
TTITLE10=Fiddle Hoedown
TTITLE11=Cocaine Blues
TTITLE12=The Devil is My Friend
TTITLE13=Country Heroes
TTITLE14=Nighttime Ramblin' Man
TTITLE15=Double A Daddy
TTITLE16=Dick in Dixie
TTITLE17=Life of Sin
TTITLE18=Go Fuck You
TTITLE19=Hell Billy
TTITLE20=They Call Me White Trash
EXTD=
EXTT0=
EXTT1=
EXTT2=
EXTT3=
EXTT4=
EXTT5=
EXTT6=
EXTT7=
EXTT8=
EXTT9=
EXTT10=
EXTT11=
EXTT12=
EXTT13=
EXTT14=
EXTT15=
EXTT16=
EXTT17=
EXTT18=
EXTT19=
EXTT20=
PLAYORDER=
